<svg width="24" height="24" viewBox="0 0 24 24" fill="none" xmlns="http://www.w3.org/2000/svg">
<g clip-path="url(#clip0_16_287)">
<path d="M4.00085 11C4.25572 11.0003 4.50088 11.0979 4.68621 11.2728C4.87155 11.4478 4.98308 11.687 4.99802 11.9414C5.01295 12.1958 4.93017 12.4464 4.76658 12.6418C4.60299 12.8373 4.37094 12.9629 4.11785 12.993L4.00085 13H3.00085C2.74597 12.9997 2.50081 12.9021 2.31548 12.7272C2.13014 12.5522 2.01861 12.313 2.00367 12.0586C1.98874 11.8042 2.07152 11.5536 2.23511 11.3582C2.3987 11.1627 2.63075 11.0371 2.88385 11.007L3.00085 11H4.00085Z" fill="#902785"/>
<path d="M12 2C12.2449 2.00003 12.4813 2.08996 12.6644 2.25272C12.8474 2.41547 12.9643 2.63975 12.993 2.883L13 3V4C12.9997 4.25488 12.9021 4.50003 12.7272 4.68537C12.5522 4.8707 12.313 4.98223 12.0586 4.99717C11.8042 5.01211 11.5536 4.92933 11.3582 4.76574C11.1627 4.60214 11.0371 4.3701 11.007 4.117L11 4V3C11 2.73478 11.1054 2.48043 11.2929 2.29289C11.4804 2.10536 11.7348 2 12 2Z" fill="#902785"/>
<path d="M21.0008 11C21.2557 11.0003 21.5009 11.0979 21.6862 11.2728C21.8715 11.4478 21.9831 11.687 21.998 11.9414C22.013 12.1958 21.9302 12.4464 21.7666 12.6418C21.603 12.8373 21.3709 12.9629 21.1178 12.993L21.0008 13H20.0008C19.746 12.9997 19.5008 12.9021 19.3155 12.7272C19.1301 12.5522 19.0186 12.313 19.0037 12.0586C18.9887 11.8042 19.0715 11.5536 19.2351 11.3582C19.3987 11.1627 19.6307 11.0371 19.8838 11.007L20.0008 11H21.0008Z" fill="#902785"/>
<path d="M4.8924 4.89247C5.06459 4.72029 5.29369 4.61686 5.53671 4.60158C5.77974 4.5863 6.01999 4.66022 6.2124 4.80947L6.3064 4.89247L7.0064 5.59247C7.18574 5.77243 7.28987 6.01391 7.29762 6.26785C7.30538 6.5218 7.21618 6.76918 7.04815 6.95975C6.88011 7.15031 6.64584 7.26978 6.39292 7.29387C6.14 7.31796 5.88739 7.24488 5.6864 7.08947L5.5924 7.00647L4.8924 6.30647C4.70492 6.11894 4.59961 5.86463 4.59961 5.59947C4.59961 5.33431 4.70492 5.08 4.8924 4.89247Z" fill="#902785"/>
<path d="M17.6931 4.89326C17.873 4.71391 18.1145 4.60978 18.3685 4.60203C18.6224 4.59427 18.8698 4.68347 19.0604 4.85151C19.2509 5.01954 19.3704 5.25381 19.3945 5.50673C19.4186 5.75965 19.3455 6.01227 19.1901 6.21326L19.1071 6.30726L18.4071 7.00726C18.2271 7.1866 17.9856 7.29073 17.7317 7.29849C17.4777 7.30624 17.2304 7.21704 17.0398 7.04901C16.8492 6.88097 16.7298 6.64671 16.7057 6.39378C16.6816 6.14086 16.7547 5.88825 16.9101 5.68726L16.9931 5.59326L17.6931 4.89326Z" fill="#902785"/>
<path d="M14 18C14.2652 18 14.5196 18.1054 14.7071 18.2929C14.8946 18.4804 15 18.7348 15 19C15 19.7956 14.6839 20.5587 14.1213 21.1213C13.5587 21.6839 12.7956 22 12 22C11.2044 22 10.4413 21.6839 9.87868 21.1213C9.31607 20.5587 9 19.7956 9 19C9.00003 18.7551 9.08996 18.5187 9.25272 18.3356C9.41547 18.1526 9.63975 18.0357 9.883 18.007L10 18H14Z" fill="#902785"/>
<path d="M12 6C13.2593 6 14.4867 6.39622 15.5083 7.13255C16.5299 7.86887 17.2939 8.90796 17.6921 10.1026C18.0903 11.2973 18.1026 12.587 17.7271 13.789C17.3516 14.991 16.6074 16.0444 15.6 16.8C15.4622 16.9035 15.2999 16.9697 15.129 16.992L15 17H9C8.78363 17 8.5731 16.9298 8.4 16.8C7.39256 16.0444 6.6484 14.991 6.27292 13.789C5.89744 12.587 5.90968 11.2973 6.3079 10.1026C6.70612 8.90796 7.47015 7.86887 8.49174 7.13255C9.51333 6.39622 10.7407 6 12 6Z" fill="#902785"/>
</g>
<defs>
<clipPath id="clip0_16_287">
<rect width="24" height="24" fill="white"/>
</clipPath>
</defs>
</svg>
